<svg xmlns="http://www.w3.org/2000/svg" viewBox="0 0 32 32" width="32" height="32">
  <!-- Background circle -->
  <circle cx="16" cy="16" r="16" fill="#2563eb"/>
  
  <!-- Document icon -->
  <path d="M10 6h8l4 4v14a2 2 0 01-2 2H10a2 2 0 01-2-2V8a2 2 0 012-2z" fill="#ffffff" stroke="#ffffff" stroke-width="0.5"/>
  
  <!-- Document lines -->
  <line x1="12" y1="14" x2="20" y2="14" stroke="#2563eb" stroke-width="1"/>
  <line x1="12" y1="17" x2="18" y2="17" stroke="#2563eb" stroke-width="1"/>
  <line x1="12" y1="20" x2="16" y2="20" stroke="#2563eb" stroke-width="1"/>
  
  <!-- AI brain/circuit pattern -->
  <circle cx="19" cy="12" r="2.5" fill="#ffffff" opacity="0.9"/>
  <circle cx="19" cy="12" r="1" fill="#2563eb"/>
  <line x1="17" y1="10" x2="19" y2="12" stroke="#ffffff" stroke-width="0.8" opacity="0.8"/>
  <line x1="21" y1="10" x2="19" y2="12" stroke="#ffffff" stroke-width="0.8" opacity="0.8"/>
  <line x1="21" y1="14" x2="19" y2="12" stroke="#ffffff" stroke-width="0.8" opacity="0.8"/>
</svg>
